<?xml version="1.0" encoding="utf-8"?>
<!-- Generator: Adobe Illustrator 24.3.0, SVG Export Plug-In . SVG Version: 6.00 Build 0)  -->
<svg version="1.1" id="Layer_1" xmlns="http://www.w3.org/2000/svg" xmlns:xlink="http://www.w3.org/1999/xlink" x="0px" y="0px"
	 viewBox="0 0 76 26.4" style="enable-background:new 0 0 76 26.4;" xml:space="preserve">
<style type="text/css">
	.st0{fill:#666666;}
</style>
<path class="st0" d="M73.8,0.8h-13c-1.3,0-1.8,0.5-1.8,1.9v21c0,1.3,0.5,1.8,1.9,1.8h1.4c1.4,0,1.9-0.4,1.9-1.8v-8.2h8.1
	c1.3,0,1.8-0.5,1.8-1.9v-0.9c0-1.4-0.4-1.9-1.8-1.9h-8V5.8h9.6c1.3,0,1.8-0.5,1.8-1.9V2.7C75.5,1.3,75.1,0.8,73.8,0.8L73.8,0.8z
	 M54.1,20.5h-6.2c-1.5,0-2.2-0.2-2.8-0.7c-0.6-0.6-0.8-1.3-0.8-2.8V2.7c0-1.4-0.4-1.9-1.8-1.9H41c-1.3,0-1.8,0.5-1.8,1.9v14.8
	c0,2.7,0.5,4.5,1.7,5.8c1.4,1.4,3.3,2.1,6.5,2.1h6.7c1.3,0,1.8-0.5,1.8-1.9v-1.1C55.9,21,55.5,20.5,54.1,20.5z M35,20.5h-6.8
	c-1.5,0-2.2-0.2-2.8-0.7c-0.6-0.6-0.8-1.3-0.8-2.8v-1.6h8.5c1.3,0,1.8-0.5,1.8-1.9v-0.9c0-1.4-0.4-1.9-1.8-1.9h-8.5V5.8h10
	c1.3,0,1.8-0.5,1.8-1.9V2.7c0-1.4-0.4-1.9-1.8-1.9H21.2c-1.3,0-1.8,0.5-1.8,1.9v14.8c0,2.7,0.5,4.5,1.7,5.8c1.4,1.4,3.3,2.1,6.5,2.1
	H35c1.3,0,1.8-0.5,1.8-1.9v-1.1C36.7,21,36.3,20.5,35,20.5z M5.5,7.9c0-1.3,1.5-2.2,3.9-2.2c2.2,0,3.9,0.5,5.1,0.5
	c0.8,0,1.1-0.4,1.1-1.3V3.2c0-1.2-0.1-1.6-1.4-1.9c-1.4-0.4-3.2-0.6-5-0.6c-4.9,0-8.9,2.9-8.9,7.6c0,8.1,11.5,6.5,11.5,10
	c0,1.4-1.5,2.4-4.4,2.4c-1.6,0-4-0.4-5.4-0.8c-0.4-0.1-0.6-0.1-0.8-0.1c-0.7,0-1,0.4-1,1.3v1.9c0,1.1,0.3,1.4,1.5,1.8
	c1.6,0.6,4.2,0.9,6.2,0.9c6,0,9.3-3.1,9.3-7.7C17,9.9,5.5,11.5,5.5,7.9z"/>
</svg>
