<?xml version="1.0" encoding="utf-8"?>
<!-- Generator: Adobe Illustrator 24.3.0, SVG Export Plug-In . SVG Version: 6.00 Build 0)  -->
<svg version="1.1" id="Layer_1" xmlns="http://www.w3.org/2000/svg" xmlns:xlink="http://www.w3.org/1999/xlink" x="0px" y="0px"
	 viewBox="0 0 135 50" style="enable-background:new 0 0 135 50;" xml:space="preserve">
<style type="text/css">
	.st0{fill:#666666;}
</style>
<path class="st0" d="M9.8,37c3.6,0,5.7-1.2,8.5-4c2-2,3.4-4.6,3.6-8H11.8l-2.2,2.2v2.6h8c-0.5,0.8-2.2,2.2-5.3,2.2
	c-4.2,0-7.4-3.2-7.4-7.6c0-2,0.5-3.3,1.3-4.1C7,19.5,8.1,19,9.9,19c2.1,0,4.2,0.7,6.1,2.3l2.7-2.5l0.3-0.8c-1.6-1.1-4.2-2.2-6.6-2.2
	c-4.6,0-8.3,3.4-8.3,8.6c0,5,3.7,8.5,8.3,8.5c4.9,0,7-3.2,7.6-6.1h-7.6v-0.9h8.7c-0.5,3.9-3.3,8-8.8,8c-5.4,0-9.4-4.1-9.4-9.5
	c0-5.7,4.6-9.5,9.4-9.5c2.8,0,5.3,1.1,6.9,2.3l0.3-0.8c-1.6-1.1-4.1-2.2-7.1-2.2c-3.3,0-5.9,1.4-8.1,3.6C1.5,20.3,0,23.4,0,26.9
	C0,32.9,4.9,37,9.8,37z M26.5,14.5h-0.8l-2.5,2.5v19.6h9.1l2.4-2.4v-0.8h-8.2V14.5z M28.3,14.5h-0.8v18h7.1v-0.8h-6.3V14.5z
	 M46.1,17.7l-4.4,11.1h8.7L46.1,17.7z M46.5,28h-3.7l1.9-4.7L46.5,28z M41.1,32.7h7.1l1.5,4h2.2l2.5-2.5L46.5,14h-0.8l-3.3,3.3
	l-7.8,19.3h3.3l2.5-2.5L41.1,32.7z M53.2,33.4h-1.1l-1.4-3.7h-9.4L40,33.4h-1.1l7.2-18.2h0.1L53.2,33.4z M58.7,15.7L58.7,15.7
	l8.7,11.6l8.5-11.6h0.1v17.7h-1V18.7L67.3,29h0l-7.6-10.3v14.7h-1V15.7z M57.8,14.3l-2.5,2.5v19.9H58l2.5-2.5l0-8.5l5,6.6h0.5
	l5.7-7.8v12.2h2.6l2.5-2.5V14.3h-0.8L72.1,17l-5.7,7.6l-7.8-10.4L57.8,14.3z M95.5,26.7c0,1.7-0.5,3.1-1.3,3.9
	c-0.9,0.9-2,1.4-3.8,1.4c-4.5,0-7.5-3.4-7.5-7.8c0-1.9,0.5-3.3,1.4-4.2s2.2-1.4,4-1.4C92.5,18.7,95.5,21.8,95.5,26.7z M80.9,24.3
	c0-5.3,4.2-9.5,9.4-9.5c5.3,0,9.4,4.2,9.4,9.5c0,5.3-4.2,9.5-9.4,9.5C85.1,33.8,80.9,29.7,80.9,24.3z M82,24.3
	c0,4.9,3.6,8.5,8.3,8.5s8.3-3.7,8.3-8.5c0-4.9-3.6-8.5-8.3-8.5S82,19.4,82,24.3z M100.7,24.3c0-5.7-4.5-10.3-10.2-10.3
	c-3.3,0-5.9,1.4-8.1,3.6c-2.7,2.7-4.2,5.8-4.2,9.4c0,6,5,10.1,10.1,10.1c3.2,0,5.8-1.2,8.1-3.6C99.7,29.9,100.7,27.1,100.7,24.3
	L100.7,24.3z M114.2,34.3c1.6-1.6,3.1-3.7,3.1-6.7V14.5h-0.8v13c0,3.6-2.2,6.3-5.7,6.3s-5.7-2.7-5.7-6.3v-13h-0.8l-2.5,2.5v12.7
	c0,4,2.7,7.2,6.8,7.2C110.7,36.8,112.4,36.1,114.2,34.3L114.2,34.3z M111.5,31.5c-0.3,0.3-0.7,0.5-1.3,0.5c-0.7,0-1.4-0.3-2-0.8
	c-0.7-0.7-1.2-1.8-1.2-3.7V14.5h-0.8v13c0,3.2,1.7,5.4,4.7,5.4s4.7-2.2,4.7-5.3v-13h-0.8l-2.4,2.5v11.5
	C112.2,30.3,111.9,31.1,111.5,31.5z M123.4,16.2v10.7h2.1c3.8,0,6.4-1.8,6.4-5.6c0-3.2-2.5-5.2-6.2-5.2H123.4z M124.2,26.1v-7.1h0.8
	c1.3,0,2.3,0.5,3,1.2c0.7,0.7,1,1.6,1,2.6c0,0.9-0.2,1.8-0.7,2.4c-0.6,0.6-1.2,0.9-2.7,0.9L124.2,26.1z M132.2,33.4h-1.5l-7-5.6
	h-0.4v5.6h-1V15.2h3.4c4.2,0,7.2,2.4,7.2,6.1c0,4.2-3.2,6.5-7.5,6.5h-0.3L132.2,33.4z M124.2,32.6l4.9,4h2.8l2.5-2.5l-5.8-4.7
	c1.3-1,2.9-2.5,3.8-3.7c0.4-0.5,1.5-2.1,1.5-4.5c0-4.2-3.2-6.8-8.1-6.8h-4.3l-2.5,2.5v19.7h2.7l2.5-2.5L124.2,32.6z"/>
</svg>
