<?xml version="1.0" encoding="utf-8"?>
<!-- Generator: Adobe Illustrator 24.3.0, SVG Export Plug-In . SVG Version: 6.00 Build 0)  -->
<svg version="1.1" id="Layer_1" xmlns="http://www.w3.org/2000/svg" xmlns:xlink="http://www.w3.org/1999/xlink" x="0px" y="0px"
	 viewBox="0 0 289.2 42.3" style="enable-background:new 0 0 289.2 42.3;" xml:space="preserve">
<style type="text/css">
	.st0{fill:#666766;}
</style>
<g>
	<rect x="54.4" y="0.6" class="st0" width="26.9" height="13.7"/>
	<polygon class="st0" points="0.6,0.6 0.6,14.3 14,14.3 14,41.7 27.5,41.7 27.5,14.3 40.9,14.3 40.9,0.6 	"/>
	<polygon class="st0" points="40.9,41.7 54.4,41.7 81.3,41.7 81.3,28 54.4,28 54.4,14.3 40.9,14.3 	"/>
	<polygon class="st0" points="115.6,10.9 95.9,10.9 95.9,16.7 102.5,16.7 102.5,34.6 109,34.6 109,16.7 115.6,16.7 	"/>
	<path class="st0" d="M123.1,16.5c-4.7,0-8.1,3.1-8.1,9.2c0,5.4,2.9,9.2,8.3,9.2c2.8,0,5-0.7,7.2-2l-2.3-3.9c-1.8,0.9-3,1.2-4.6,1.2
		c-1.7,0-2.8-0.9-3-2.8H131c0-0.3,0-0.7,0-1.2C131,19.7,128,16.5,123.1,16.5z M120.6,23.7c0.2-1.8,1-2.7,2.4-2.7
		c1.8,0,2.4,0.9,2.7,2.7H120.6z"/>
	<path class="st0" d="M142.5,30c-1.7,0-2.5-1.5-2.5-4.3s0.8-4.4,2.3-4.4c1.3,0,1.9,0.7,2.7,2.3l4.2-3.2c-1.6-2.5-3.5-4-6.8-4
		c-5.7,0-8.4,3.7-8.4,9.2c0,6,3.1,9.3,8.3,9.3c3.1,0,5.1-1.2,7.1-4.2l-3.8-3C144.5,29.4,143.7,30,142.5,30z"/>
	<path class="st0" d="M163.4,16.5c-2.1,0-3.3,0.7-4.5,1.6V10l-6.1,2.4v22.2h6.1V24.4c0-2.2,0.8-2.8,2.1-2.8c1.2,0,2,0.6,2,2.9v10.1
		h6.1V23.7C169.2,19.1,167.3,16.5,163.4,16.5z"/>
	<path class="st0" d="M183.8,29.2c-2.8,0-4-2.9-4-6.5c0-3.7,1.2-6.5,3.9-6.5c2.2,0,3,1.4,3.8,3.6l5.9-2.3c-1.6-4.5-3.9-7-9.7-7
		c-6.3,0-10.8,4.6-10.8,12.2c0,7,3.7,12.2,10.8,12.2c5.6,0,8.2-3,9.8-6.1l-5.5-2.9C186.7,28.1,185.9,29.2,183.8,29.2z"/>
	<path class="st0" d="M203.3,18.1v-1.3h-6.1v17.7h6.1v-9.7c0-2.2,0.9-2.9,2.4-2.9c1.2,0,2.1,0.6,2.8,1.5l1.4-6.3
		c-0.7-0.4-1.6-0.7-2.9-0.7C205.5,16.5,204.4,17.1,203.3,18.1z"/>
	<path class="st0" d="M223,27c0,2.2-0.8,2.8-2,2.8c-1.2,0-2-0.6-2-2.9V16.9h-6.1v10.8c0,4.7,1.9,7.3,5.7,7.3c2.1,0,3.3-0.7,4.4-1.6
		v1.2h6.1V16.9H223V27z"/>
	<path class="st0" d="M244.1,16.5c-2.1,0-3.3,0.7-4.5,1.6v-1.2h-6.1v17.7h6.1V24.4c0-2.2,0.8-2.8,2.1-2.8c1.2,0,2,0.6,2,2.9v10.1
		h6.1V23.7C249.8,19.1,248,16.5,244.1,16.5z"/>
	<path class="st0" d="M261.9,30c-1.7,0-2.5-1.5-2.5-4.3s0.8-4.4,2.3-4.4c1.3,0,1.9,0.7,2.7,2.3l4.2-3.2c-1.6-2.5-3.5-4-6.8-4
		c-5.7,0-8.4,3.7-8.4,9.2c0,6,3.1,9.3,8.3,9.3c3.1,0,5.1-1.2,7.1-4.2l-3.8-3C263.9,29.4,263,30,261.9,30z"/>
	<path class="st0" d="M282.8,16.5c-2.1,0-3.3,0.7-4.5,1.6V10l-6.1,2.4v22.2h6.1V24.4c0-2.2,0.8-2.8,2.1-2.8c1.2,0,2,0.6,2,2.9v10.1
		h6.1V23.7C288.6,19.1,286.7,16.5,282.8,16.5z"/>
</g>
</svg>
