<?xml version="1.0" encoding="utf-8"?>
<!-- Generator: Adobe Illustrator 24.3.0, SVG Export Plug-In . SVG Version: 6.00 Build 0)  -->
<svg version="1.1" id="Layer_1" xmlns="http://www.w3.org/2000/svg" xmlns:xlink="http://www.w3.org/1999/xlink" x="0px" y="0px"
	 viewBox="0 0 370 79" style="enable-background:new 0 0 370 79;" xml:space="preserve">
<style type="text/css">
	.st0{fill:#666666;}
</style>
<g id="XMLID_1_">
	<polygon id="XMLID_2_" class="st0" points="3,51.8 7.6,51.1 7.6,8.4 2.5,7.8 2.8,3.2 35,3.2 34.2,16.1 27.8,15.9 27.4,7.8 
		17.4,7.8 17.4,27 21.8,27 22.8,22.6 27.2,22.7 27.2,35.9 22.8,35.9 21.7,31.4 17.3,31.4 17.3,51.7 27.4,51.7 28.3,42.9 35.1,43.1 
		35.6,56.5 2.8,56.5 	"/>
	<path id="XMLID_3_" class="st0" d="M38.6,56.7l0.2-3.9l3.6-0.7V25.2l-4.2-0.4v-4l10.6-1.5l0.8,2.3v1.5c2.5-2.7,5.6-4.3,9.6-4.3
		c5.8,0,10,3.5,10,10.4v22.9l3.8,0.7l-0.2,3.9H60.3V31c0-3.7-1.3-5.8-4.7-5.8c-1.1,0-1.9,0.2-2.8,0.5c-0.5,0.5-1.1,1.1-1.5,1.7V52
		l3.8,0.7l-0.3,3.9L38.6,56.7L38.6,56.7z"/>
	<path id="XMLID_4_" class="st0" d="M240.7,56.7l0.2-3.9l3.6-0.7V25.2l-4.2-0.4v-4l10.6-1.5l0.8,2.3v1.5c2.5-2.7,5.6-4.3,9.6-4.3
		c5.8,0,10,3.5,10,10.4v22.9l3.8,0.7l-0.2,3.9h-12.5V31c0-3.7-1.3-5.8-4.7-5.8c-1.1,0-1.9,0.2-2.8,0.5c-0.5,0.5-1.1,1.1-1.5,1.7V52
		l3.8,0.7l-0.3,3.9L240.7,56.7L240.7,56.7z"/>
	<path id="XMLID_5_" class="st0" d="M92.9,55.9c-1.5,0.6-4.1,1.3-7.5,1.3c-4.5,0-8.6-2-8.6-8.6V25l-4.3-0.7l0.2-4.7l4.8-0.2l2.1-7.2
		l6.2-0.3v7.7h6.6l-0.5,4.7L85.8,25v23.5c0,1.9,1.1,3.2,3.1,3.2h3.6L92.9,55.9z"/>
	<path id="XMLID_6_" class="st0" d="M343.2,56.7l0.2-3.9l3.4-0.8V25.1l-4-0.4v-4l11-1.5l0.7,2.6v0.9c2.9-2.1,6.8-3.5,11.4-3.5
		l1.6,1.4l-1.1,10.1l-6-0.2l-0.6-5.4c-1.4,0.2-2.7,0.6-3.9,1.4V52l3.8,0.8l-0.3,3.9L343.2,56.7L343.2,56.7z"/>
	<path id="XMLID_7_" class="st0" d="M185.7,56.7l0.2-3.9l3.4-0.8V25.1l-4-0.4v-4l11-1.5l0.7,2.6v0.9c2.9-2.1,6.8-3.5,11.4-3.5
		l1.6,1.4l-1.1,10.1l-6-0.2l-0.6-5.4c-1.4,0.2-2.7,0.6-3.9,1.4V52l3.8,0.8l-0.3,3.9L185.7,56.7L185.7,56.7z"/>
	<path id="XMLID_8_" class="st0" d="M95.6,56.7l0.2-3.9l3.4-0.8V25.1l-4-0.4v-4l11-1.5l0.7,2.6v0.9c2.9-2.1,6.8-3.5,11.4-3.5
		l1.6,1.4l-1.1,10.1l-6-0.2l-0.6-5.4c-1.4,0.2-2.7,0.6-3.9,1.4V52l3.8,0.8l-0.3,3.9L95.6,56.7L95.6,56.7z"/>
	<path id="XMLID_9_" class="st0" d="M130.3,40.3c0,6.4,2.8,11.4,8.4,11.4c2.9,0,5.1-0.6,7.8-1.9l1.5,3.5c-2.7,2.2-6.8,3.9-11.8,3.9
		c-9.8,0-15.4-8.4-15.4-19.3c0-9.2,4.1-19.3,15.2-19.3c9.8,0,13.4,9,13.4,19.1l-0.9,2.4L130.3,40.3z M130.1,36l11.2-0.5
		c-0.2-4.5-1.1-11.6-5.5-11.6c-1.1,0-1.8,0.2-3.1,0.9C130.8,27.8,130.1,33.4,130.1,36z"/>
	<path id="XMLID_12_" class="st0" d="M285.7,40.3c0,6.4,2.8,11.4,8.4,11.4c2.9,0,5.1-0.6,7.8-1.9l1.5,3.5c-2.7,2.2-6.8,3.9-11.8,3.9
		c-9.8,0-15.4-8.4-15.4-19.3c0-9.2,4.1-19.3,15.2-19.3c9.8,0,13.4,9,13.4,19.1l-0.9,2.4L285.7,40.3z M285.5,36l11.2-0.5
		c-0.2-4.5-1.1-11.6-5.5-11.6c-1.1,0-1.8,0.2-3.1,0.9C286.2,27.8,285.5,33.4,285.5,36z"/>
	<path id="XMLID_15_" class="st0" d="M220.3,40.3c0,6.4,2.8,11.4,8.4,11.4c2.9,0,5.1-0.6,7.8-1.9l1.5,3.5c-2.7,2.2-6.8,3.9-11.8,3.9
		c-9.8,0-15.4-8.4-15.4-19.3c0-9.2,4.1-19.3,15.2-19.3c9.8,0,13.4,9,13.4,19.1l-0.9,2.4L220.3,40.3z M220.2,36l11.2-0.5
		c-0.2-4.5-1.1-11.6-5.5-11.6c-1.1,0-1.8,0.2-3.1,0.9C220.9,27.8,220.1,33.4,220.2,36z"/>
	<path id="XMLID_18_" class="st0" d="M330.1,56.7l-0.9-3.2c-2.5,2.3-4.9,3.7-8.6,3.7c-5.8,0-10.9-2.9-10.9-10.8V24.1l-4.2-0.4v-3.5
		l12.2-1.4l0.9,3.2v23.3c0,4.1,1.7,6.2,4.9,6.2c0.9,0,2.1-0.1,3.2-0.5c0.6-0.6,1.2-1.3,1.7-2.1V24.2l-4.3-0.4v-3.5l12.3-1.4l0.9,3.2
		v30l3.8,0.7l-0.5,3.9L330.1,56.7L330.1,56.7z"/>
	<path id="XMLID_19_" class="st0" d="M167.7,51.8c-1.9,0-3.5-0.3-4.7-1V27.2c0.5-0.8,1.1-1.5,1.7-2.2c1.1-0.4,2.1-0.5,3.3-0.5
		c5,0,5.9,5.1,5.9,14.2c0,8.8-1.3,11.2-1.7,12.2C170.9,51.5,169.5,51.8,167.7,51.8z M182.7,37c0-11.3-3.3-18.4-11.7-18.4
		c-5.5,0-8.2,3.2-9.2,4.5V22l-0.9-3.2l-11,1.5v3.9l4.2,0.5v45.6l-3.6,0.7l-0.2,3.8h16.1l0.3-3.8l-3.8-0.7V55.9
		c1.5,0.9,3.7,1.4,6,1.4C182.6,57.2,182.7,43.3,182.7,37z"/>
	<path id="XMLID_22_" class="st0" d="M364.6,53.2c1.1,0,1.8,0.7,1.8,1.8c0,1.1-0.7,1.8-1.8,1.8c-1.1,0-1.8-0.7-1.8-1.8
		C362.8,54,363.5,53.2,364.6,53.2z M364.6,56.3c0.7,0,1.3-0.5,1.3-1.3s-0.5-1.3-1.3-1.3c-0.7,0-1.3,0.5-1.3,1.3
		S363.9,56.3,364.6,56.3z M363.8,55.8v-0.3l0.2-0.1v-1.1h-0.2V54h0.9c0.4,0,0.7,0.1,0.7,0.5c0,0.3-0.1,0.4-0.3,0.5
		c0.1,0.2,0.2,0.3,0.3,0.4h0.1v0.3H365c-0.1-0.1-0.3-0.3-0.4-0.6h-0.1v0.3l0.2,0.1v0.3L363.8,55.8L363.8,55.8z M364.5,54.4v0.5h0.1
		c0.2,0,0.3-0.1,0.3-0.3C364.9,54.4,364.8,54.4,364.5,54.4L364.5,54.4L364.5,54.4z"/>
</g>
</svg>
